HIERARCHY
ROOT SimulationBone
{
	OFFSET 0.000000 0.000000 0.000000
	CHANNELS 6 Xposition Yposition Zposition Zrotation Yrotation Xrotation 
	JOINT Hips
	{
		OFFSET 0.000000 0.000000 0.000000
		CHANNELS 6 Xposition Yposition Zposition Zrotation Yrotation Xrotation 
		JOINT RightUpLeg
		{
			OFFSET 0.103462 1.857825 10.548491
			CHANNELS 3 Zrotation Yrotation Xrotation
			JOINT RightLeg
			{
				OFFSET 43.500000 -0.000038 -0.000006
				CHANNELS 3 Zrotation Yrotation Xrotation
				JOINT RightFoot
				{
					OFFSET 42.372196 0.000034 -0.000012
					CHANNELS 3 Zrotation Yrotation Xrotation
					JOINT RightToe
					{
						OFFSET 17.299999 -0.000001 -0.000008
						CHANNELS 3 Zrotation Yrotation Xrotation
						End Site
						{
							OFFSET 0.000000 0.000000 0.000000
						}
					}
				}
			}
		}
		JOINT LeftUpLeg
		{
			OFFSET 0.103456 1.857821 -10.548490
			CHANNELS 3 Zrotation Yrotation Xrotation
			JOINT LeftLeg
			{
				OFFSET 43.500038 -0.000011 0.000011
				CHANNELS 3 Zrotation Yrotation Xrotation
				JOINT LeftFoot
				{
					OFFSET 42.372265 0.000004 0.000029
					CHANNELS 3 Zrotation Yrotation Xrotation
					JOINT LeftToe
					{
						OFFSET 17.299988 -0.000007 0.000004
						CHANNELS 3 Zrotation Yrotation Xrotation
						End Site
						{
							OFFSET 0.000000 0.000000 0.000000
						}
					}
				}
			}
		}
		JOINT Spine
		{
			OFFSET 6.901963 -2.603729 -0.000012
			CHANNELS 3 Zrotation Yrotation Xrotation
			JOINT Spine1
			{
				OFFSET 12.588106 0.000010 0.000003
				CHANNELS 3 Zrotation Yrotation Xrotation
				JOINT Spine2
				{
					OFFSET 12.343199 -0.000001 -0.000002
					CHANNELS 3 Zrotation Yrotation Xrotation
					JOINT Neck
					{
						OFFSET 25.832895 -0.000006 0.000023
						CHANNELS 3 Zrotation Yrotation Xrotation
						JOINT Head
						{
							OFFSET 11.766605 0.000011 -0.000027
							CHANNELS 3 Zrotation Yrotation Xrotation
							End Site
							{
								OFFSET 0.000000 0.000000 0.000000
							}
						}
					}
					JOINT RightShoulder
					{
						OFFSET 19.745903 -1.480368 6.000127
						CHANNELS 3 Zrotation Yrotation Xrotation
						JOINT RightArm
						{
							OFFSET 11.284108 0.000010 -0.000010
							CHANNELS 3 Zrotation Yrotation Xrotation
							JOINT RightForeArm
							{
								OFFSET 33.000069 0.000000 0.000030
								CHANNELS 3 Zrotation Yrotation Xrotation
								JOINT RightHand
								{
									OFFSET 25.199997 0.000019 0.000001
									CHANNELS 3 Zrotation Yrotation Xrotation
									End Site
									{
										OFFSET 0.000000 0.000000 0.000000
									}
								}
							}
						}
					}
					JOINT LeftShoulder
					{
						OFFSET 19.746101 -1.480371 -6.000072
						CHANNELS 3 Zrotation Yrotation Xrotation
						JOINT LeftArm
						{
							OFFSET 11.284140 -0.000007 -0.000004
							CHANNELS 3 Zrotation Yrotation Xrotation
							JOINT LeftForeArm
							{
								OFFSET 33.000080 0.000016 -0.000002
								CHANNELS 3 Zrotation Yrotation Xrotation
								JOINT LeftHand
								{
									OFFSET 25.199766 0.000146 0.000422
									CHANNELS 3 Zrotation Yrotation Xrotation
									End Site
									{
										OFFSET 0.000000 0.000000 0.000000
									}
								}
							}
						}
					}
				}
			}
		}
	}
}
MOTION
Frames: 15
Frame Time: 0.016667
-350.839867 0.000000 -283.054992 0.000000 72.113265 0.000000 -1.621016 86.650169 2.610620 94.191610 2.663975 -176.285948 157.779788 -23.911603 175.388316 -24.386994 -2.716178 -5.701144 73.911498 -1.154968 -17.712873 21.454558 0.003113 0.000019 177.121121 8.177902 163.305534 -64.340798 -4.432632 4.643846 69.504981 -2.049173 3.318422 21.454550 -0.003083 -0.000003 9.536861 -1.391902 -0.613075 9.079381 -2.731351 -1.333824 8.760974 -2.739493 -1.317293 19.381010 -2.251104 10.652506 -3.356042 -13.617270 14.332423 -167.172390 -71.404215 -14.576106 -9.807750 39.465880 26.248898 -69.651789 -14.056315 2.447132 -3.794001 4.251029 27.927978 172.688000 76.133914 -5.970867 18.326621 -61.510571 -72.353380 -47.389299 10.483387 -1.368301 13.793167 -6.110441 -56.798435 
-352.515287 0.000000 -285.634725 0.000000 72.279043 0.000000 -0.655418 85.462061 2.212965 95.374375 1.291953 -178.222994 157.610850 -23.130652 171.425881 -31.976184 -2.110060 -3.563292 71.230577 -1.839475 -14.144536 21.454559 0.003115 0.000019 177.554595 8.030757 160.198674 -69.790887 -4.888204 3.312789 69.656205 -1.148567 3.155211 21.454562 -0.003099 0.000004 9.606810 -1.417768 -0.727243 9.222471 -2.772995 -1.565631 8.904098 -2.782531 -1.548840 19.410847 -3.921718 11.274053 -3.751747 -14.050799 15.142414 -163.281792 -71.913819 -18.575936 -8.123628 38.895005 26.020950 -70.432341 -13.792181 2.449701 -2.925052 4.785558 28.019513 169.275387 77.264823 -9.415162 18.512897 -61.844191 -70.995741 -47.023015 10.606242 -1.365577 14.373347 -6.540995 -54.740855 
-354.065638 0.000000 -288.290212 0.000000 72.445341 0.000000 0.404049 84.019890 1.496047 97.364271 -0.019824 -179.391782 157.987904 -22.056201 171.141741 -40.291941 -3.515036 -3.027260 73.989266 -1.448930 -12.277006 21.454560 0.003107 0.000017 179.014299 7.799096 157.411586 -75.154066 -4.480400 1.979726 70.781454 -0.303572 2.807655 21.454560 -0.003103 0.000003 9.897824 -1.518430 -0.882185 9.810528 -2.956489 -1.890578 9.492155 -2.967990 -1.872680 19.675897 -4.721337 11.638329 -4.227949 -14.797791 15.790803 -161.642327 -72.543599 -20.254175 -8.171967 38.173322 25.275988 -69.714579 -14.262833 2.464052 -2.771237 4.626417 28.792405 167.623073 77.216971 -11.099899 19.349486 -62.151127 -68.999245 -46.443974 11.074451 -1.379345 13.767480 -5.842249 -55.470947 
-355.497234 0.000000 -291.015395 0.000000 72.611947 0.000000 1.387018 82.626318 0.680143 99.564986 -1.278485 179.899708 158.969940 -20.541113 172.230022 -48.064409 -5.414554 -3.045904 79.547108 -0.654676 -11.472869 21.454559 0.003098 0.000015 -179.375516 7.438418 155.335633 -80.248438 -3.755564 0.678011 72.308657 0.388143 2.189644 21.454551 -0.003099 -0.000003 10.275912 -1.668749 -1.045368 10.574925 -3.234813 -2.239842 10.256529 -3.248425 -2.220270 20.048490 -4.735824 11.795068 -4.701551 -15.795288 16.297353 -161.951223 -73.204193 -19.929061 -9.526939 37.367237 23.967401 -68.352610 -15.073382 2.471472 -3.116535 3.974811 29.980277 167.939344 76.354625 -10.808811 20.072113 -62.457427 -66.686336 -45.452156 11.683066 -1.390760 11.939134 -4.030318 -56.695854 
-356.816388 0.000000 -293.804219 0.000000 72.778645 0.000000 2.120564 81.584007 -0.016489 101.393535 -2.499464 179.370905 160.529991 -18.425197 172.436308 -53.897640 -6.076706 -3.106131 85.202634 0.093782 -11.141946 21.454558 0.003096 0.000015 -178.496066 6.810190 154.371510 -84.863412 -3.232990 -0.452588 73.667134 0.828520 1.192752 21.454546 -0.003092 -0.000009 10.606818 -1.844601 -1.183662 11.245940 -3.565217 -2.542397 10.927499 -3.580648 -2.520835 20.390526 -4.049178 11.800210 -5.085846 -16.981793 16.677469 -163.897314 -73.736895 -17.927185 -11.767130 36.521854 22.040352 -67.204805 -15.828127 2.469827 -3.745439 3.035238 31.326928 169.708985 74.999981 -9.049060 19.905697 -62.758693 -64.371396 -43.846378 12.227098 -1.380428 8.918607 -1.049938 -56.206094 
-358.029413 0.000000 -296.650627 0.000000 72.945221 0.000000 2.482146 81.070853 -0.439271 102.400975 -3.630188 178.856179 162.351098 -15.637303 170.468064 -56.949800 -4.417355 -3.131055 88.971662 0.488581 -10.918172 21.454557 0.003107 0.000018 -179.035699 5.766114 154.843108 -88.829538 -3.256216 -1.175026 74.492804 0.941185 -0.099117 21.454548 -0.003087 -0.000012 10.779231 -2.007116 -1.280540 11.599049 -3.875530 -2.757638 11.280555 -3.892240 -2.734199 20.634077 -2.855574 11.703857 -5.363878 -18.211477 16.935437 -166.995526 -73.942375 -14.749091 -14.501895 35.653802 19.523365 -66.953047 -16.220635 2.484986 -4.440338 2.045593 32.617320 172.220193 73.518249 -6.525702 18.553059 -63.057436 -62.442570 -41.691822 12.547527 -1.342598 5.367781 3.093246 -52.614242 
-359.142623 0.000000 -299.548565 0.000000 73.111461 0.000000 2.559887 80.765694 -0.681021 102.628883 -4.365049 178.569871 163.636333 -12.903698 168.540478 -58.701322 -2.361702 -3.358618 91.719652 0.830203 -10.800237 21.454557 0.003119 0.000020 179.118118 4.258307 156.720466 -92.223706 -3.569795 -1.186295 75.229629 0.773767 -0.776881 21.454551 -0.003088 -0.000011 10.774856 -2.054693 -1.389458 11.595458 -3.959576 -2.979867 11.277007 -3.977616 -2.955916 21.011656 -1.790152 11.541673 -5.807901 -18.997842 17.052090 -170.449487 -73.586214 -11.207125 -17.429758 34.723304 16.833927 -67.536923 -16.299840 2.516111 -5.005567 1.409293 33.801611 174.651967 72.549705 -4.058612 17.659427 -63.512226 -61.626882 -40.121401 12.673314 -1.308729 3.524551 6.993138 -47.362580 
-360.162331 0.000000 -302.491975 0.000000 73.277150 0.000000 2.474712 80.373297 -0.867455 102.263118 -4.463583 178.697465 164.081119 -11.050376 168.653428 -60.631359 -1.899722 -3.865919 94.597250 1.415180 -10.751791 21.454557 0.003119 0.000019 176.286772 2.370261 159.821694 -95.053201 -3.818174 -0.329416 76.300114 0.358508 -0.171627 21.454546 -0.003095 -0.000005 10.618713 -1.919049 -1.562545 11.283638 -3.676339 -3.306711 10.965411 -3.696366 -3.284467 21.672689 -1.294290 11.374194 -6.589044 -19.004126 17.045382 -173.336418 -72.672909 -8.239499 -20.309313 33.833892 14.321048 -68.769762 -16.135150 2.549798 -5.322136 1.353004 34.947065 176.753537 72.536213 -1.901721 18.724935 -64.229062 -62.428308 -40.135254 12.675356 -1.308713 4.718404 8.771706 -42.223654 
-361.094850 0.000000 -305.474802 0.000000 73.442072 0.000000 2.262484 80.201210 -1.013553 101.617613 -4.215317 178.966079 164.610947 -9.886597 169.121918 -61.884067 -2.167095 -4.213557 97.113527 1.916299 -10.501113 21.454558 0.003112 0.000017 172.926962 0.395295 163.646674 -96.769245 -3.899966 1.069603 77.273474 -0.423527 0.588604 21.454541 -0.003100 -0.000002 10.416889 -1.728271 -1.774018 10.878611 -3.281883 -3.704297 10.560673 -3.304329 -3.684431 22.119002 -0.600110 11.370489 -7.189456 -18.833625 17.109769 -175.322295 -72.067815 -6.193504 -23.032310 33.553030 11.671959 -70.715017 -15.523937 2.593420 -5.609109 1.250646 36.460628 178.894033 72.742399 0.299986 20.452637 -64.820126 -63.830957 -41.133580 12.593319 -1.330101 6.750486 8.218621 -38.870968 
-361.946494 0.000000 -308.490990 0.000000 73.606012 0.000000 1.943097 80.574656 -1.112000 100.968389 -3.989206 179.065421 166.049074 -8.980441 168.109867 -61.404412 -1.991810 -4.048153 98.601069 1.977111 -9.837680 21.454557 0.003105 0.000017 169.485358 -1.398205 167.628726 -96.866777 -3.846005 2.543347 77.660983 -1.530611 0.406664 21.454543 -0.003095 -0.000005 10.264983 -1.619010 -1.991647 10.575889 -3.049034 -4.124439 10.258198 -3.074014 -4.105978 21.895593 0.966473 11.647481 -7.132906 -19.123226 17.422187 -176.649186 -72.464184 -4.834059 -25.550657 34.268585 8.544690 -73.381781 -14.322797 2.631766 -6.135682 0.555450 38.601391 -178.915552 72.433525 2.544274 21.179108 -64.956182 -64.628615 -42.263489 12.460500 -1.352329 7.507322 6.117568 -38.293289 
-362.723576 0.000000 -311.534482 0.000000 73.768755 0.000000 1.558699 81.286789 -1.176795 100.306712 -3.923919 178.978445 168.149135 -8.097904 166.534232 -59.608399 -1.960382 -3.594557 99.310444 1.801178 -8.838629 21.454557 0.003102 0.000017 166.095434 -2.739399 171.368094 -95.593885 -3.698312 3.519145 77.497559 -2.330630 0.077272 21.454551 -0.003087 -0.000008 10.131837 -1.568879 -2.240262 10.313388 -2.931698 -4.612992 9.995960 -2.959612 -4.595246 21.354170 2.503494 12.004700 -6.776601 -19.714508 17.845094 -177.742013 -73.028488 -3.719088 -27.575636 35.319911 5.499492 -76.337342 -12.902916 2.648792 -6.890294 -0.170772 40.661785 -177.067012 72.102895 4.439592 21.399117 -64.874931 -65.213995 -43.259671 12.317877 -1.369939 7.905427 3.791987 -38.371114 
-363.432409 0.000000 -314.599224 0.000000 73.930085 0.000000 1.157831 82.080140 -1.224724 99.571909 -4.047006 178.783812 170.501646 -7.140385 165.616587 -57.153026 -2.746090 -3.191200 99.550871 1.661559 -7.653118 21.454559 0.003104 0.000017 162.873741 -3.481647 174.575085 -93.281241 -3.440855 3.567011 76.938841 -2.269786 0.501393 21.454557 -0.003083 -0.000003 9.967872 -1.520029 -2.550563 9.990236 -2.814053 -5.224422 9.673168 -2.845641 -5.207398 20.930070 3.048056 12.276194 -6.550618 -20.292090 18.225781 -178.706155 -72.885058 -2.727321 -28.765632 36.109360 3.262435 -79.152653 -11.636338 2.674786 -7.727729 -0.419466 41.832920 -175.686696 72.350122 5.861505 21.988167 -64.834424 -66.184245 -44.046872 12.189419 -1.382978 9.034267 2.272892 -37.201104 
-364.079308 0.000000 -317.679158 0.000000 74.089787 0.000000 0.791751 83.026833 -1.263658 98.772097 -4.175046 178.648132 172.944775 -6.066696 165.109906 -54.160913 -3.612770 -2.919142 98.935596 1.543614 -6.504850 21.454560 0.003108 0.000017 160.020431 -3.901391 177.354878 -89.820559 -3.013502 2.926322 76.249772 -1.661656 1.144868 21.454558 -0.003087 0.000003 9.778262 -1.429478 -2.917692 9.614119 -2.611509 -5.945565 9.297539 -2.647435 -5.929774 20.666897 2.991990 12.620205 -6.357408 -20.726470 18.658661 -179.222415 -72.542008 -2.191811 -29.455832 37.056852 1.720936 -81.797696 -10.389238 2.710248 -8.502083 -0.916112 41.933505 -174.720965 72.935809 6.859486 22.931514 -64.691097 -67.098677 -44.720803 12.023445 -1.391918 10.345497 1.313117 -36.511465 
-364.670584 0.000000 -320.768229 0.000000 74.247644 0.000000 0.492570 84.223768 -1.299979 97.935060 -4.132149 178.711803 175.351315 -4.839988 164.638081 -50.694821 -3.800414 -2.736512 97.017542 1.405351 -5.617841 21.454556 0.003111 0.000018 157.676997 -4.286357 179.830225 -85.096026 -2.383444 1.919371 75.628346 -0.941747 1.272777 21.454550 -0.003098 0.000002 9.582580 -1.272908 -3.318716 9.221245 -2.277277 -6.729577 8.905270 -2.317923 -6.715802 20.519733 2.969109 13.167388 -6.081181 -21.017006 19.244439 -179.260732 -72.653266 -2.154221 -30.098954 38.617039 0.516101 -84.299450 -8.975285 2.726518 -9.106987 -2.301679 41.111036 -174.095064 73.462031 7.506597 24.018537 -64.240390 -67.453300 -45.419785 11.795446 -1.398031 11.106696 0.569940 -38.197644 
-365.212552 0.000000 -323.860381 0.000000 74.403442 0.000000 0.213033 85.537361 -1.344645 97.108195 -3.998772 178.941134 177.572720 -3.571303 164.750583 -47.147268 -3.848124 -2.694598 93.812743 1.317381 -5.148180 21.454555 0.003112 0.000019 155.813062 -4.605390 -178.318590 -79.409247 -1.640819 0.480795 74.920385 -0.101192 0.741441 21.454545 -0.003105 -0.000001 9.404925 -1.086399 -3.693282 8.859845 -1.886866 -7.459808 8.544497 -1.931900 -7.448378 20.453292 3.217116 13.669125 -6.061970 -21.475269 19.876660 -179.772696 -73.062885 -1.635401 -30.641269 40.543927 -0.584674 -86.539063 -7.494104 2.716868 -9.569304 -3.650395 40.118686 -173.249019 73.742577 8.376708 25.218108 -63.396660 -67.602390 -46.283704 11.665279 -1.413843 11.157794 0.162650 -41.302194 
